<?xml version="1.0" encoding="iso-8859-1"?>
<!-- Generator: Adobe Illustrator 19.0.0, SVG Export Plug-In . SVG Version: 6.00 Build 0)  -->
<svg version="1.1" id="Capa_1" xmlns="http://www.w3.org/2000/svg" xmlns:xlink="http://www.w3.org/1999/xlink" x="0px" y="0px"
	 viewBox="0 0 490 490" style="enable-background:new 0 0 490 490;" xml:space="preserve" fill="#666666">
<g>
	<g>
		<g>
			<path d="M366.5,98V9.7c0-5.4-4.3-9.7-9.7-9.7h-224c-5.4,0-9.7,4.3-9.7,9.7V98H4.9v131.1H66v-25.7h50.9v25.7h255.9v-25.7h50.9
				v25.7h61.4V98H366.5z M142.5,19.4h204.6V98H142.5V19.4z"/>
			<polygon points="423.7,274.2 372.8,274.2 372.8,248.9 116.9,248.9 116.9,274.2 65.9,274.2 65.9,248.9 4.9,248.9 4.9,490 
				484.7,490 484.7,248.9 423.7,248.9 			"/>
		</g>
	</g>
</g>
<g>
</g>
<g>
</g>
<g>
</g>
<g>
</g>
<g>
</g>
<g>
</g>
<g>
</g>
<g>
</g>
<g>
</g>
<g>
</g>
<g>
</g>
<g>
</g>
<g>
</g>
<g>
</g>
<g>
</g>
</svg>
